<svg xmlns="http://www.w3.org/2000/svg" width="100" height="100" viewBox="0 0 75 75">
  <rect width="75" height="75" fill="#0a0a0a"/>
  <g fill="#ffffff" fill-opacity="1">
    <g transform="translate(17.253926, 55.99363)">
      <g>
        <path d="M 18.9375 -36.6875 C 21.570312 -36.6875 23.820312 -36.203125 25.6875 -35.234375 C 27.550781 -34.273438 28.957031 -32.929688 29.90625 -31.203125 C 30.863281 -29.472656 31.34375 -27.460938 31.34375 -25.171875 C 31.34375 -22.878906 30.863281 -20.867188 29.90625 -19.140625 C 28.957031 -17.421875 27.550781 -16.078125 25.6875 -15.109375 C 23.820312 -14.148438 21.570312 -13.671875 18.9375 -13.671875 L 12.015625 -13.671875 L 12.015625 0 L 4.765625 0 L 4.765625 -36.6875 Z M 17.984375 -19.421875 C 22.023438 -19.421875 24.046875 -21.335938 24.046875 -25.171875 C 24.046875 -29.015625 22.023438 -30.9375 17.984375 -30.9375 L 12.015625 -30.9375 L 12.015625 -19.421875 Z M 17.984375 -19.421875 "/>
      </g>
    </g>
  </g>
  <g fill="#737373" fill-opacity="1">
    <g transform="translate(43.550799, 55.99363)">
      <g>
        <path d="M 7.078125 0.21875 C 6.191406 0.21875 5.410156 0.0390625 4.734375 -0.3125 C 4.054688 -0.675781 3.535156 -1.175781 3.171875 -1.8125 C 2.816406 -2.445312 2.640625 -3.164062 2.640625 -3.96875 C 2.640625 -4.769531 2.816406 -5.488281 3.171875 -6.125 C 3.535156 -6.757812 4.054688 -7.257812 4.734375 -7.625 C 5.410156 -8 6.191406 -8.1875 7.078125 -8.1875 C 7.984375 -8.1875 8.773438 -8.003906 9.453125 -7.640625 C 10.128906 -7.273438 10.644531 -6.773438 11 -6.140625 C 11.363281 -5.503906 11.546875 -4.785156 11.546875 -3.984375 C 11.546875 -2.765625 11.140625 -1.757812 10.328125 -0.96875 C 9.515625 -0.175781 8.429688 0.21875 7.078125 0.21875 Z M 7.078125 0.21875 "/>
      </g>
    </g>
  </g>
</svg>
